 <!--Created for free with Tennessine's Flag Designer at https://tennessine.co.uk/flags/--><!DOCTYPE svg PUBLIC "-//W3C//DTD SVG 1.1//EN" "http://www.w3.org/Graphics/SVG/1.1/DTD/svg11.dtd"><svg class="svg faded fadein" xmlns="http://www.w3.org/2000/svg" xmlns:xlink="http://www.w3.org/1999/xlink" width="975.0367704700502" height="597.6000366210938" viewBox="0 0 100 61.29" id="svg"><g><g><path d="M0,0L100,0L100,61.29L0,61.29Z" fill="rgb(255,255,255)"/></g></g><g class="svg-group-clickable" transform="rotate(0,49.178009271621704,8.102409362792969)"><g><path d="M-2.974246805689138,7.435994133026605L101.33026610039609,7.435994133026605L101.33026610039609,8.76882464128827L-2.974246805689138,8.76882464128827Z" fill="rgb(33,163,105)"/></g></g><g class="svg-group-clickable" transform="rotate(0,49.767919063568115,53.14476776123047)"><g><path d="M-2.384336896883377,52.478352932858584L101.92017600920185,52.478352932858584L101.92017600920185,53.81118344112025L-2.384336896883377,53.81118344112025Z" fill="rgb(33,163,105)"/></g></g><g class="svg-group-clickable" transform="rotate(0,50.562570571899414,30.26076602935791)"><g style=""><image href="https://upload.wikimedia.org/wikipedia/commons/3/33/Green_leaf.svg" x="32.71671486258052" y="12.4149088655091" width="35.69171590587719" height="35.69171590587718" preserveAspectRatio="none"/></g></g><g class="svg-group-clickable" transform="rotate(0,52.060001373291016,29.6899995803833)"><g><path d="M52.05876132794806,30.450103702798266L52.06,22.49L53.85,27.99L59.63,27.99L54.95,31.39L56.74,36.89L52.06,33.49L47.38,36.89L49.17,31.39L44.49,27.99L50.27,27.99L52.06,22.49L53.85,27.99" fill="rgb(255,203,33)"/></g></g><defs id="font-data"><style xmlns="http://www.w3.org/1999/xhtml">svg * { -webkit-tap-highlight-color: rgba(0, 0, 0, 0); }
.svg-group-clickable { cursor: pointer; }
svg &gt; g &gt; g { transform-origin: left top; transform-box: fill-box; }
.faded { opacity: 0.75; }
.fadein { opacity: 1; transition: opacity 0.3s ease 0s; }
</style></defs></svg>